<svg id="图层_3" data-name="图层 3" xmlns="http://www.w3.org/2000/svg" viewBox="0 0 82.21 54.43"><defs><style>.cls-1{fill:#231815;}.cls-2{fill:#040000;}</style></defs><title>aG</title><path class="cls-1" d="M155,169.47a1.15,1.15,0,0,1-.08.41,1.07,1.07,0,0,1-.21.36.86.86,0,0,1-.31.26.79.79,0,0,1-.4.1.64.64,0,0,1-.69-.69,1.05,1.05,0,0,1,.11-.48,1.56,1.56,0,0,1,.3-.44,2,2,0,0,1,.44-.37,2.62,2.62,0,0,1,.55-.29,3.82,3.82,0,0,1,.6-.19,3.23,3.23,0,0,1,.61-.06l.44,0a1.73,1.73,0,0,1,.4.12l.11,0,.14-.05.14,0,.13,0v0a1.05,1.05,0,0,0-.24.06l-.22.1a.68.68,0,0,1,.38.62.88.88,0,0,1-.1.45.91.91,0,0,1-.27.31,1.46,1.46,0,0,1-.38.17,2.2,2.2,0,0,1-.44.05h0a.51.51,0,0,1,.23.17.49.49,0,0,1,.08.28,1.12,1.12,0,0,1,0,.27c0,.11-.07.22-.11.33s-.08.21-.11.32a.92.92,0,0,0-.05.25c0,.11.05.16.15.16a.85.85,0,0,0,.34-.1,1.87,1.87,0,0,0,.42-.32,5,5,0,0,0,.73-.92l0,0-.27.41a4.79,4.79,0,0,1-.38.45,1.35,1.35,0,0,1-.92.52.41.41,0,0,1-.28-.09.32.32,0,0,1-.1-.25.83.83,0,0,1,.06-.27c0-.1.08-.21.13-.32l.12-.33a.83.83,0,0,0,.06-.29.27.27,0,0,0-.11-.25.73.73,0,0,0-.26-.08l0-.05H156a1.06,1.06,0,0,0,.4-.08.86.86,0,0,0,.3-.23.91.91,0,0,0,.2-.33,1.1,1.1,0,0,0,.07-.41.52.52,0,0,0-.05-.24.49.49,0,0,0-.14-.18,1.74,1.74,0,0,0-.49.46,8,8,0,0,0-.46.68c-.16.25-.31.51-.48.77a5.87,5.87,0,0,1-.51.73,3.12,3.12,0,0,1-.57.53,1.18,1.18,0,0,1-.67.21l-.16,0a.76.76,0,0,1-.16-.06.57.57,0,0,1-.11-.11.29.29,0,0,1,0-.16.2.2,0,0,1,0-.15.25.25,0,0,1,.15-.05.12.12,0,0,1,.11,0,.16.16,0,0,1,0,.11.28.28,0,0,1,0,.12.1.1,0,0,1-.1.05.21.21,0,0,0,.1.12.46.46,0,0,0,.21,0,.73.73,0,0,0,.48-.2,2.41,2.41,0,0,0,.45-.53c.15-.21.3-.45.45-.71s.31-.51.47-.76a5.37,5.37,0,0,1,.55-.69,2.18,2.18,0,0,1,.65-.49,1.45,1.45,0,0,0-.37-.11l-.4,0a3.27,3.27,0,0,0-.53.05,3,3,0,0,0-1.06.42,2.56,2.56,0,0,0-.43.36,1.65,1.65,0,0,0-.29.45,1.13,1.13,0,0,0-.11.52.66.66,0,0,0,.13.44.46.46,0,0,0,.38.16.76.76,0,0,0,.39-.1,1,1,0,0,0,.29-.26.88.88,0,0,0,.19-.34,1.27,1.27,0,0,0,.07-.37Z" transform="translate(-137.67 -119.5)"/><path class="cls-1" d="M159.49,170.34c-.05.09-.12.18-.19.28a3.48,3.48,0,0,1-.26.3c-.09.09-.19.19-.3.28l-.34.25a2.81,2.81,0,0,1-.35.17,1.12,1.12,0,0,1-.35.06.44.44,0,0,1-.32-.11.39.39,0,0,1-.12-.31,1.07,1.07,0,0,1,.13-.46,2.05,2.05,0,0,1,.34-.45,2.42,2.42,0,0,1,.45-.34,1,1,0,0,1,.47-.13.39.39,0,0,1,.2.05.21.21,0,0,1,.07.15.36.36,0,0,1-.13.24,2,2,0,0,1-.32.2l-.4.17-.38.1a.92.92,0,0,0-.09.23.73.73,0,0,0,0,.25s0,.08,0,.12l0,.1a.3.3,0,0,0,.08.08.21.21,0,0,0,.12,0,.89.89,0,0,0,.38-.11,2.67,2.67,0,0,0,.46-.29,3.35,3.35,0,0,0,.44-.41,3.09,3.09,0,0,0,.36-.47Zm-.81-.26a.18.18,0,0,0,0-.11.16.16,0,0,0-.09,0,.46.46,0,0,0-.23.08,1.5,1.5,0,0,0-.24.21,1.78,1.78,0,0,0-.22.26,1.17,1.17,0,0,0-.15.25l.28-.08a1.73,1.73,0,0,0,.31-.14,1.11,1.11,0,0,0,.27-.2A.34.34,0,0,0,158.68,170.08Z" transform="translate(-137.67 -119.5)"/><path class="cls-1" d="M161.26,170.35a3.64,3.64,0,0,1-.35.48,2.85,2.85,0,0,1-.43.42,2.25,2.25,0,0,1-.51.31,1.48,1.48,0,0,1-.59.12.85.85,0,0,1-.23,0,.51.51,0,0,1-.18-.09.64.64,0,0,1-.13-.15.54.54,0,0,1,0-.22.35.35,0,0,1,.08-.24.28.28,0,0,1,.23-.1.16.16,0,0,1,.12,0s.05.06.05.11a.21.21,0,0,1,0,.12.14.14,0,0,1-.11,0,.14.14,0,0,1-.09,0,.2.2,0,0,1,0-.08.13.13,0,0,0-.07.09.25.25,0,0,0,0,.12.28.28,0,0,0,.13.26.53.53,0,0,0,.3.09.48.48,0,0,0,.18,0,.69.69,0,0,0,.13-.11.8.8,0,0,0,.08-.16,1.1,1.1,0,0,0,0-.18.75.75,0,0,0,0-.2c0-.07,0-.13-.07-.2a1.67,1.67,0,0,1-.08-.2.57.57,0,0,1,0-.18.45.45,0,0,1,0-.2.44.44,0,0,1,.12-.15.61.61,0,0,1,.18-.09.76.76,0,0,1,.21,0,.58.58,0,0,1,.33.09.26.26,0,0,1,.12.23.2.2,0,0,1-.1.19.37.37,0,0,1-.21.06s0-.08,0-.13a.89.89,0,0,0,0-.15.23.23,0,0,0-.06-.16.21.21,0,0,0-.18-.07.23.23,0,0,0-.21.09.3.3,0,0,0-.07.21.76.76,0,0,0,0,.21l.09.2a1.67,1.67,0,0,1,.08.2.61.61,0,0,1,0,.24.39.39,0,0,1,0,.18.91.91,0,0,1-.11.16.61.61,0,0,1-.16.12.45.45,0,0,1-.18.07h0a1.43,1.43,0,0,0,.52-.16,2.26,2.26,0,0,0,.45-.31,2.52,2.52,0,0,0,.4-.4,3.85,3.85,0,0,0,.31-.43Z" transform="translate(-137.67 -119.5)"/><path class="cls-1" d="M163.07,170.34c0,.09-.12.18-.19.28a3.48,3.48,0,0,1-.26.3c-.09.09-.19.19-.3.28l-.34.25a2.81,2.81,0,0,1-.35.17,1.12,1.12,0,0,1-.35.06.44.44,0,0,1-.32-.11.39.39,0,0,1-.12-.31,1.07,1.07,0,0,1,.13-.46,2.05,2.05,0,0,1,.34-.45,2.42,2.42,0,0,1,.45-.34,1,1,0,0,1,.47-.13.39.39,0,0,1,.2.05.21.21,0,0,1,.07.15.36.36,0,0,1-.13.24,2,2,0,0,1-.32.2l-.4.17-.38.1a.92.92,0,0,0-.09.23.73.73,0,0,0,0,.25s0,.08,0,.12l0,.1a.3.3,0,0,0,.08.08.21.21,0,0,0,.12,0,.89.89,0,0,0,.38-.11,2.67,2.67,0,0,0,.46-.29,3.35,3.35,0,0,0,.44-.41,3.09,3.09,0,0,0,.36-.47Zm-.81-.26a.18.18,0,0,0,0-.11.16.16,0,0,0-.09,0,.46.46,0,0,0-.23.08,1.5,1.5,0,0,0-.24.21,1.78,1.78,0,0,0-.22.26,1.17,1.17,0,0,0-.15.25l.28-.08a1.73,1.73,0,0,0,.31-.14,1.11,1.11,0,0,0,.27-.2A.34.34,0,0,0,162.26,170.08Z" transform="translate(-137.67 -119.5)"/><path class="cls-1" d="M164.48,169.92h.33c-.13.17-.25.34-.36.5l-.3.46a3,3,0,0,0-.21.36.54.54,0,0,0-.08.25c0,.09,0,.13.13.13a.65.65,0,0,0,.27-.1,2.66,2.66,0,0,0,.35-.29,4,4,0,0,0,.39-.42c.13-.16.26-.33.38-.51h0a4.83,4.83,0,0,1-.32.45c-.12.15-.25.3-.38.44a2.41,2.41,0,0,1-.4.34.69.69,0,0,1-.37.14.34.34,0,0,1-.22-.07.28.28,0,0,1-.06-.18.3.3,0,0,1,0-.13.78.78,0,0,1,0-.14h0l-.17.17a1.2,1.2,0,0,1-.21.17,1,1,0,0,1-.23.13.53.53,0,0,1-.23.06.29.29,0,0,1-.26-.12.44.44,0,0,1-.07-.26,1,1,0,0,1,.13-.45,1.78,1.78,0,0,1,.33-.46,1.88,1.88,0,0,1,.43-.37.94.94,0,0,1,.45-.14.47.47,0,0,1,.17,0,.33.33,0,0,1,.13.07.26.26,0,0,1,.07.11.61.61,0,0,1,.05.12h0Zm-1.63,1.4a.32.32,0,0,0,0,.18.18.18,0,0,0,.14.06.49.49,0,0,0,.2-.06l.24-.17.24-.24a1.54,1.54,0,0,0,.22-.3,1.82,1.82,0,0,0,.16-.31.89.89,0,0,0,.06-.31.24.24,0,0,0-.07-.17.23.23,0,0,0-.16-.06.56.56,0,0,0-.33.13,1.81,1.81,0,0,0-.35.33,2.11,2.11,0,0,0-.28.45A1,1,0,0,0,162.85,171.32Z" transform="translate(-137.67 -119.5)"/><path class="cls-1" d="M166,169.92l-.63.92h0l.17-.19a2.61,2.61,0,0,1,.24-.23l.27-.24.27-.2.06-.08a.17.17,0,0,1,.12,0h.18a.89.89,0,0,0-.16.21.42.42,0,0,0-.08.26.3.3,0,0,0,.05.18.18.18,0,0,0,.15.07.32.32,0,0,0,.14,0l.14-.08.13-.09.1-.09,0,0-.11.11-.14.1a1.29,1.29,0,0,1-.16.09.57.57,0,0,1-.18,0,.34.34,0,0,1-.26-.1.37.37,0,0,1-.09-.27.42.42,0,0,1,.05-.22h0a4.35,4.35,0,0,0-.45.37,6.87,6.87,0,0,0-.52.54,2,2,0,0,0-.21.29,2.53,2.53,0,0,0-.18.37h-.33l.54-.86.56-.86Z" transform="translate(-137.67 -119.5)"/><path class="cls-1" d="M169,170.38a2.55,2.55,0,0,1-.31.4,3.78,3.78,0,0,1-.4.4,2.82,2.82,0,0,1-.54.36,1.2,1.2,0,0,1-.53.14.45.45,0,0,1-.31-.1.32.32,0,0,1-.13-.29,1,1,0,0,1,.14-.49,2.13,2.13,0,0,1,.34-.45,1.89,1.89,0,0,1,.46-.34,1,1,0,0,1,.47-.13.66.66,0,0,1,.25.05.2.2,0,0,1,.11.18.12.12,0,0,1,0,.1.19.19,0,0,1-.08.07l-.1,0h-.1l0-.1a.36.36,0,0,0,0-.11.16.16,0,0,0-.18-.18.53.53,0,0,0-.31.13,1.65,1.65,0,0,0-.33.32,1.73,1.73,0,0,0-.27.43,1.14,1.14,0,0,0-.11.45.41.41,0,0,0,.06.23.22.22,0,0,0,.2.1.89.89,0,0,0,.4-.12,2.32,2.32,0,0,0,.44-.28,3.61,3.61,0,0,0,.78-.85Z" transform="translate(-137.67 -119.5)"/><path class="cls-1" d="M170.74,168.18,169,170.81h0l.24-.29a2.81,2.81,0,0,1,.29-.31,2,2,0,0,1,.33-.24.67.67,0,0,1,.35-.1.27.27,0,0,1,.31.3.38.38,0,0,1-.06.19,2.29,2.29,0,0,1-.15.24c0,.08-.12.16-.18.24l-.19.25a1.43,1.43,0,0,0-.15.22.41.41,0,0,0-.05.17.12.12,0,0,0,0,.09.1.1,0,0,0,.09,0,.68.68,0,0,0,.25-.07,2.31,2.31,0,0,0,.28-.19l.3-.27.26-.28c.09-.1.16-.19.22-.27l.15-.21h0c0,.06-.09.14-.16.23l-.23.28a3.84,3.84,0,0,1-.57.57,1.81,1.81,0,0,1-.29.19.77.77,0,0,1-.27.07.29.29,0,0,1-.21-.08.27.27,0,0,1-.08-.22.63.63,0,0,1,0-.22,1.58,1.58,0,0,1,.15-.24,2.35,2.35,0,0,1,.19-.25l.18-.23.15-.2a.35.35,0,0,0,.06-.16.13.13,0,0,0-.05-.11.2.2,0,0,0-.11,0,.6.6,0,0,0-.28.09,2,2,0,0,0-.31.24,3.47,3.47,0,0,0-.32.34l-.31.38-.25.36a3.08,3.08,0,0,0-.16.29h-.33c.18-.29.37-.58.57-.88l.57-.88c.2-.29.38-.58.57-.87l.52-.82Z" transform="translate(-137.67 -119.5)"/><path class="cls-1" d="M174.92,168.86V169a.32.32,0,0,0,.13.29l.14.06h.16a.66.66,0,0,0,.27-.06,1.15,1.15,0,0,0,.26-.19,1,1,0,0,0,.18-.27.73.73,0,0,0,.08-.33.3.3,0,0,0-.12-.28.57.57,0,0,0-.31-.07,1.18,1.18,0,0,0-.49.11,2.92,2.92,0,0,0-.55.29,4.44,4.44,0,0,0-.54.45,5,5,0,0,0-.46.57,3.19,3.19,0,0,0-.32.64,2,2,0,0,0-.12.68.9.9,0,0,0,0,.28.71.71,0,0,0,.11.25.47.47,0,0,0,.19.18.54.54,0,0,0,.29.07,1.12,1.12,0,0,0,.47-.11,1.45,1.45,0,0,0,.39-.3,1.56,1.56,0,0,0,.27-.4,1.17,1.17,0,0,0,.1-.44.4.4,0,0,0-.12-.31.47.47,0,0,0-.32-.1v-.06a.72.72,0,0,1,.46.12.55.55,0,0,1,.16.43,1,1,0,0,1-.1.39,1.28,1.28,0,0,1-.27.4,1.5,1.5,0,0,1-1.06.44,1,1,0,0,1-.44-.09.91.91,0,0,1-.28-.23.69.69,0,0,1-.16-.29,1,1,0,0,1-.05-.29,1.64,1.64,0,0,1,.14-.64,3.1,3.1,0,0,1,.35-.64,3.94,3.94,0,0,1,.52-.57,4.1,4.1,0,0,1,.59-.46,3.05,3.05,0,0,1,.62-.32,1.73,1.73,0,0,1,.56-.11.69.69,0,0,1,.47.13.48.48,0,0,1,.16.38.59.59,0,0,1-.09.32.78.78,0,0,1-.22.26,1,1,0,0,1-.31.17,1.13,1.13,0,0,1-.36.06.58.58,0,0,1-.33-.09.35.35,0,0,1-.15-.32v-.13Z" transform="translate(-137.67 -119.5)"/><path class="cls-1" d="M178,170.34a2,2,0,0,1-.19.28,3.31,3.31,0,0,1-.25.3l-.31.28-.33.25a2.92,2.92,0,0,1-.36.17,1.06,1.06,0,0,1-.34.06.49.49,0,0,1-.33-.11.38.38,0,0,1-.11-.31,1,1,0,0,1,.13-.46,2.05,2.05,0,0,1,.34-.45,1.9,1.9,0,0,1,.45-.34,1,1,0,0,1,.47-.13.36.36,0,0,1,.19.05.18.18,0,0,1,.07.15.32.32,0,0,1-.13.24,1.6,1.6,0,0,1-.32.2l-.4.17-.38.1a.92.92,0,0,0-.09.23,1.07,1.07,0,0,0,0,.25.49.49,0,0,0,0,.12.42.42,0,0,0,0,.1.27.27,0,0,0,.07.08.21.21,0,0,0,.12,0,1,1,0,0,0,.39-.11,2.28,2.28,0,0,0,.45-.29,3.35,3.35,0,0,0,.44-.41,3.09,3.09,0,0,0,.36-.47Zm-.81-.26a.14.14,0,0,0,0-.11.12.12,0,0,0-.09,0,.49.49,0,0,0-.23.08,1.5,1.5,0,0,0-.24.21,2.75,2.75,0,0,0-.22.26,1.66,1.66,0,0,0-.14.25,1.5,1.5,0,0,0,.27-.08,1.83,1.83,0,0,0,.32-.14,1.06,1.06,0,0,0,.26-.2A.34.34,0,0,0,177.15,170.08Z" transform="translate(-137.67 -119.5)"/><path class="cls-1" d="M178.54,169.92l-.66.91h0l.25-.29a3,3,0,0,1,.3-.32,1.59,1.59,0,0,1,.33-.25.63.63,0,0,1,.34-.1.32.32,0,0,1,.23.08.29.29,0,0,1,.09.21.38.38,0,0,1-.06.19c0,.08-.09.16-.14.24s-.12.17-.19.25a3,3,0,0,0-.18.25,2.17,2.17,0,0,0-.15.22.41.41,0,0,0-.05.16.12.12,0,0,0,.14.14.71.71,0,0,0,.34-.11,2.32,2.32,0,0,0,.43-.36l.2-.22.2-.24.17-.22.12-.18,0,0-.26.36c-.11.14-.22.28-.34.41s-.15.16-.23.23a1.92,1.92,0,0,1-.23.19.89.89,0,0,1-.23.13.59.59,0,0,1-.22.05.36.36,0,0,1-.24-.08.28.28,0,0,1-.09-.22.61.61,0,0,1,.12-.33,4.06,4.06,0,0,1,.26-.36l.27-.34a.53.53,0,0,0,.12-.29.13.13,0,0,0,0-.09.2.2,0,0,0-.11,0,.57.57,0,0,0-.28.09,1.65,1.65,0,0,0-.32.25c-.1.1-.21.21-.32.34s-.21.25-.3.37-.18.25-.25.36a2.6,2.6,0,0,0-.17.29h-.31c.09-.15.18-.3.28-.45l.29-.45.28-.43.24-.38Z" transform="translate(-137.67 -119.5)"/><path class="cls-1" d="M181.27,169.34l-.4.58h.66l0,.06h-.67c-.13.22-.25.4-.36.56l-.26.41a2.3,2.3,0,0,0-.16.29.48.48,0,0,0-.06.21.13.13,0,0,0,.07.13.24.24,0,0,0,.15,0,.74.74,0,0,0,.39-.14,2.61,2.61,0,0,0,.44-.34,5.44,5.44,0,0,0,.41-.42c.13-.15.24-.29.33-.41l0,0-.38.46a5.6,5.6,0,0,1-.41.43,3.15,3.15,0,0,1-.44.33.76.76,0,0,1-.41.13.39.39,0,0,1-.27-.1.33.33,0,0,1-.11-.26.56.56,0,0,1,.07-.26,2.49,2.49,0,0,1,.17-.31c.07-.11.14-.23.23-.36l.28-.41h-.27l0-.06h.28l.39-.58Z" transform="translate(-137.67 -119.5)"/><path class="cls-1" d="M183.61,170.34a2,2,0,0,1-.19.28,3.31,3.31,0,0,1-.25.3l-.31.28-.33.25a2.92,2.92,0,0,1-.36.17,1.06,1.06,0,0,1-.34.06.49.49,0,0,1-.33-.11.38.38,0,0,1-.11-.31,1,1,0,0,1,.13-.46,2.05,2.05,0,0,1,.34-.45,1.9,1.9,0,0,1,.45-.34,1,1,0,0,1,.47-.13.36.36,0,0,1,.19.05.18.18,0,0,1,.07.15.32.32,0,0,1-.13.24,1.6,1.6,0,0,1-.32.2l-.4.17-.38.1a.92.92,0,0,0-.09.23,1.07,1.07,0,0,0,0,.25.49.49,0,0,0,0,.12.42.42,0,0,0,0,.1.27.27,0,0,0,.07.08.21.21,0,0,0,.12,0,1,1,0,0,0,.39-.11,2.28,2.28,0,0,0,.45-.29,3.35,3.35,0,0,0,.44-.41,3.09,3.09,0,0,0,.36-.47Zm-.81-.26a.14.14,0,0,0,0-.11.12.12,0,0,0-.09,0,.46.46,0,0,0-.23.08,1.5,1.5,0,0,0-.24.21,2.75,2.75,0,0,0-.22.26,1.66,1.66,0,0,0-.14.25,1.5,1.5,0,0,0,.27-.08,1.83,1.83,0,0,0,.32-.14,1.06,1.06,0,0,0,.26-.2A.34.34,0,0,0,182.8,170.08Z" transform="translate(-137.67 -119.5)"/><path class="cls-1" d="M184.2,169.92l-.63.92h0l.17-.19a2.61,2.61,0,0,1,.24-.23l.27-.24.27-.2.06-.08a.17.17,0,0,1,.12,0h.18a.89.89,0,0,0-.16.21.42.42,0,0,0-.08.26.3.3,0,0,0,0,.18.18.18,0,0,0,.15.07.35.35,0,0,0,.14,0l.14-.08.13-.09.1-.09,0,0-.11.11-.14.1a1.29,1.29,0,0,1-.16.09.57.57,0,0,1-.18,0,.34.34,0,0,1-.26-.1.37.37,0,0,1-.09-.27.42.42,0,0,1,.05-.22h0a4.35,4.35,0,0,0-.45.37,6.87,6.87,0,0,0-.52.54,1.45,1.45,0,0,0-.21.29,2.53,2.53,0,0,0-.18.37h-.33l.54-.86.56-.86Z" transform="translate(-137.67 -119.5)"/><path class="cls-1" d="M188.55,170.35a4.85,4.85,0,0,1-.35.48,2.85,2.85,0,0,1-.43.42,2.25,2.25,0,0,1-.51.31,1.48,1.48,0,0,1-.59.12.85.85,0,0,1-.23,0,.51.51,0,0,1-.18-.09.64.64,0,0,1-.13-.15.54.54,0,0,1,0-.22.35.35,0,0,1,.08-.24.28.28,0,0,1,.23-.1.16.16,0,0,1,.12,0s0,.06,0,.11a.21.21,0,0,1,0,.12.14.14,0,0,1-.11,0,.14.14,0,0,1-.09,0,.2.2,0,0,1,0-.08.13.13,0,0,0-.07.09.25.25,0,0,0,0,.12.28.28,0,0,0,.13.26.53.53,0,0,0,.3.09.48.48,0,0,0,.18,0,.69.69,0,0,0,.13-.11.8.8,0,0,0,.08-.16,1.1,1.1,0,0,0,0-.18.75.75,0,0,0,0-.2c0-.07-.05-.13-.07-.2a1.67,1.67,0,0,1-.08-.2.57.57,0,0,1,0-.18.45.45,0,0,1,0-.2A.44.44,0,0,1,187,170a.61.61,0,0,1,.18-.09.76.76,0,0,1,.21,0,.58.58,0,0,1,.33.09.26.26,0,0,1,.12.23.2.2,0,0,1-.1.19.37.37,0,0,1-.21.06s0-.08.05-.13a.89.89,0,0,0,0-.15.23.23,0,0,0-.06-.16.21.21,0,0,0-.18-.07.23.23,0,0,0-.21.09.3.3,0,0,0-.07.21.76.76,0,0,0,0,.21l.09.2a1.67,1.67,0,0,1,.08.2.61.61,0,0,1,0,.24.39.39,0,0,1,0,.18.91.91,0,0,1-.11.16.61.61,0,0,1-.16.12.45.45,0,0,1-.18.07h0a1.43,1.43,0,0,0,.52-.16,2.26,2.26,0,0,0,.45-.31,2.52,2.52,0,0,0,.4-.4,3.85,3.85,0,0,0,.31-.43Z" transform="translate(-137.67 -119.5)"/><path class="cls-1" d="M189.21,169.92l-.47.66-.31.45c-.08.12-.13.22-.17.29a.51.51,0,0,0,0,.17c0,.09,0,.13.11.13a.65.65,0,0,0,.23-.07,2,2,0,0,0,.28-.19c.09-.08.19-.16.29-.26l.27-.29.22-.27a1.44,1.44,0,0,0,.15-.22l0,0a2.22,2.22,0,0,1-.17.24,2.92,2.92,0,0,1-.23.29l-.27.29a2.32,2.32,0,0,1-.3.26,2,2,0,0,1-.29.19.56.56,0,0,1-.26.07.25.25,0,0,1-.2-.08.21.21,0,0,1-.07-.16.59.59,0,0,1,.05-.22,1.62,1.62,0,0,1,.15-.29l.27-.41.41-.6Zm.29-.93a.13.13,0,0,1,.11,0,.16.16,0,0,1,0,.11.17.17,0,0,1,0,.12.16.16,0,0,1-.11,0,.17.17,0,0,1-.12,0,.16.16,0,0,1,0-.12.15.15,0,0,1,0-.11A.13.13,0,0,1,189.5,169Z" transform="translate(-137.67 -119.5)"/><path class="cls-1" d="M190.38,169.92l-.66.91h0l.25-.29a3,3,0,0,1,.3-.32,1.59,1.59,0,0,1,.33-.25.63.63,0,0,1,.34-.1.32.32,0,0,1,.23.08.29.29,0,0,1,.09.21.38.38,0,0,1-.06.19c0,.08-.09.16-.14.24s-.12.17-.19.25a3,3,0,0,0-.18.25,2.17,2.17,0,0,0-.15.22.41.41,0,0,0-.05.16.12.12,0,0,0,.14.14.71.71,0,0,0,.34-.11,2.32,2.32,0,0,0,.43-.36l.2-.22.2-.24.17-.22.12-.18,0,0-.26.36c-.11.14-.22.28-.34.41l-.23.23a1.92,1.92,0,0,1-.23.19.89.89,0,0,1-.23.13.59.59,0,0,1-.22.05.36.36,0,0,1-.24-.08.28.28,0,0,1-.09-.22.61.61,0,0,1,.12-.33,4.06,4.06,0,0,1,.26-.36l.27-.34a.53.53,0,0,0,.12-.29.13.13,0,0,0,0-.09.2.2,0,0,0-.11,0,.57.57,0,0,0-.28.09,1.65,1.65,0,0,0-.32.25,3.53,3.53,0,0,0-.32.34c-.11.12-.21.25-.3.37s-.18.25-.25.36a2.6,2.6,0,0,0-.17.29H189c.09-.15.18-.3.28-.45l.29-.45.28-.43.24-.38Z" transform="translate(-137.67 -119.5)"/><path class="cls-1" d="M193.9,170.38a3.2,3.2,0,0,1-.3.4,3.87,3.87,0,0,1-.41.4,2.82,2.82,0,0,1-.54.36,1.2,1.2,0,0,1-.53.14.46.46,0,0,1-.31-.1.34.34,0,0,1-.12-.29,1,1,0,0,1,.13-.49,1.88,1.88,0,0,1,.35-.45,2.05,2.05,0,0,1,.45-.34,1,1,0,0,1,.47-.13.62.62,0,0,1,.25.05.2.2,0,0,1,.11.18.15.15,0,0,1,0,.1.27.27,0,0,1-.08.07l-.11,0h-.1a1,1,0,0,0,0-.1.37.37,0,0,0,0-.11c0-.12-.06-.18-.17-.18a.53.53,0,0,0-.31.13,1.68,1.68,0,0,0-.34.32,2.05,2.05,0,0,0-.26.43,1,1,0,0,0-.11.45.41.41,0,0,0,.06.23.2.2,0,0,0,.19.1.86.86,0,0,0,.4-.12,2.76,2.76,0,0,0,.45-.28,4,4,0,0,0,.43-.4,4.26,4.26,0,0,0,.35-.45Z" transform="translate(-137.67 -119.5)"/><path class="cls-1" d="M195.73,170.34c0,.09-.12.18-.19.28a3.48,3.48,0,0,1-.26.3c-.09.09-.19.19-.3.28l-.34.25a2.81,2.81,0,0,1-.35.17,1.12,1.12,0,0,1-.35.06.44.44,0,0,1-.32-.11.39.39,0,0,1-.12-.31,1,1,0,0,1,.13-.46,2.05,2.05,0,0,1,.34-.45,2.42,2.42,0,0,1,.45-.34,1,1,0,0,1,.47-.13.39.39,0,0,1,.2.05.21.21,0,0,1,.07.15.36.36,0,0,1-.13.24,2,2,0,0,1-.32.2l-.4.17-.38.1a.92.92,0,0,0-.09.23.73.73,0,0,0,0,.25.49.49,0,0,0,0,.12.42.42,0,0,0,0,.1.3.3,0,0,0,.08.08.21.21,0,0,0,.12,0,.93.93,0,0,0,.38-.11,2.67,2.67,0,0,0,.46-.29,3.35,3.35,0,0,0,.44-.41,3.09,3.09,0,0,0,.36-.47Zm-.81-.26a.18.18,0,0,0,0-.11.16.16,0,0,0-.09,0,.46.46,0,0,0-.23.08,1.5,1.5,0,0,0-.24.21,1.78,1.78,0,0,0-.22.26,1.17,1.17,0,0,0-.15.25l.28-.08a1.73,1.73,0,0,0,.31-.14,1.35,1.35,0,0,0,.27-.2A.34.34,0,0,0,194.92,170.08Z" transform="translate(-137.67 -119.5)"/><path class="cls-1" d="M198.6,171c0,.08-.09.16-.14.24a1,1,0,0,1-.18.22,1.18,1.18,0,0,1-.22.17.67.67,0,0,1-.28.06.34.34,0,0,1-.16,0l-.17-.09-.18-.08a.41.41,0,0,0-.19,0,.4.4,0,0,0-.2,0,.36.36,0,0,0-.12.08.32.32,0,0,0-.08.09s0,0-.05,0h0a0,0,0,0,1,0,0s.1-.12.28-.24a9.17,9.17,0,0,1,.85-.43,3.06,3.06,0,0,0,.45-.24,1.23,1.23,0,0,0,.26-.24.62.62,0,0,0,.14-.23,1,1,0,0,0,0-.24.48.48,0,0,0-.1-.33.37.37,0,0,0-.31-.13l-.19,0a.75.75,0,0,0-.17.1.44.44,0,0,0-.12.15.42.42,0,0,0-.05.2.28.28,0,0,0,.06.18.2.2,0,0,0,.17.08H198l.08,0h0a.3.3,0,0,1-.12.13.34.34,0,0,1-.17.05.28.28,0,0,1-.2-.08.33.33,0,0,1-.07-.23.58.58,0,0,1,.05-.21.6.6,0,0,1,.14-.21.78.78,0,0,1,.24-.16.79.79,0,0,1,.32-.06.77.77,0,0,1,.27,0,.68.68,0,0,1,.19.11.42.42,0,0,1,.11.16.43.43,0,0,1,0,.19.64.64,0,0,1-.09.34,1,1,0,0,1-.24.27,1.71,1.71,0,0,1-.35.21,2.76,2.76,0,0,1-.39.18l-.41.18a2.29,2.29,0,0,0-.35.19v0l.13-.06a.32.32,0,0,1,.14,0l.16,0,.19.08.19.07a.37.37,0,0,0,.16,0,.32.32,0,0,0,.18-.06.61.61,0,0,0,.15-.13.59.59,0,0,0,.13-.18l.1-.16Z" transform="translate(-137.67 -119.5)"/><path class="cls-1" d="M199.12,171.15a1.24,1.24,0,0,1,.06-.37,2.53,2.53,0,0,1,.18-.37,2.8,2.8,0,0,1,.25-.35,2.7,2.7,0,0,1,.31-.28,1.86,1.86,0,0,1,.33-.19.85.85,0,0,1,.33-.07.48.48,0,0,1,.22,0,.42.42,0,0,1,.15.11.53.53,0,0,1,.08.17.76.76,0,0,1,0,.21,1.15,1.15,0,0,1-.07.35,1.41,1.41,0,0,1-.18.37,2,2,0,0,1-.25.34,2.89,2.89,0,0,1-.32.29,1.61,1.61,0,0,1-.33.2.78.78,0,0,1-.33.07.41.41,0,0,1-.35-.15A.6.6,0,0,1,199.12,171.15Zm.24,0c0,.06,0,.11,0,.16a.46.46,0,0,0,0,.14s.05.08.09.1a.29.29,0,0,0,.14,0,.75.75,0,0,0,.4-.14,1.6,1.6,0,0,0,.38-.36,2.48,2.48,0,0,0,.28-.51,1.65,1.65,0,0,0,.11-.57.88.88,0,0,0,0-.17.35.35,0,0,0-.06-.14.27.27,0,0,0-.11-.1.25.25,0,0,0-.16,0,.63.63,0,0,0-.37.15,1.59,1.59,0,0,0-.36.37,2.06,2.06,0,0,0-.27.51A1.59,1.59,0,0,0,199.36,171.17Z" transform="translate(-137.67 -119.5)"/><path class="cls-1" d="M202.8,171c0,.08-.09.16-.14.24a1,1,0,0,1-.18.22,1.18,1.18,0,0,1-.22.17.67.67,0,0,1-.28.06.34.34,0,0,1-.16,0l-.17-.09-.18-.08a.41.41,0,0,0-.19,0,.4.4,0,0,0-.2,0,.36.36,0,0,0-.12.08.32.32,0,0,0-.08.09s0,0,0,0h0v0s.1-.12.28-.24a9.17,9.17,0,0,1,.85-.43,3.06,3.06,0,0,0,.45-.24,1.23,1.23,0,0,0,.26-.24.62.62,0,0,0,.14-.23,1,1,0,0,0,0-.24.48.48,0,0,0-.1-.33.37.37,0,0,0-.31-.13l-.19,0a.75.75,0,0,0-.17.1.44.44,0,0,0-.12.15.42.42,0,0,0,0,.2.28.28,0,0,0,.06.18.21.21,0,0,0,.17.08h.08l.08,0h0a.3.3,0,0,1-.12.13.34.34,0,0,1-.17.05.28.28,0,0,1-.2-.08.33.33,0,0,1-.07-.23.58.58,0,0,1,0-.21.6.6,0,0,1,.14-.21.78.78,0,0,1,.24-.16.79.79,0,0,1,.32-.06.77.77,0,0,1,.27,0,.68.68,0,0,1,.19.11.42.42,0,0,1,.11.16.43.43,0,0,1,0,.19.64.64,0,0,1-.09.34,1,1,0,0,1-.24.27,1.71,1.71,0,0,1-.35.21,2.76,2.76,0,0,1-.39.18l-.41.18a2.29,2.29,0,0,0-.35.19v0l.13-.06a.32.32,0,0,1,.14,0l.16,0,.19.08.19.07a.37.37,0,0,0,.16,0,.32.32,0,0,0,.18-.06.61.61,0,0,0,.15-.13.59.59,0,0,0,.13-.18l.1-.16Z" transform="translate(-137.67 -119.5)"/><path class="cls-1" d="M204.9,171c0,.08-.09.16-.14.24a1,1,0,0,1-.18.22,1.18,1.18,0,0,1-.22.17.67.67,0,0,1-.28.06.34.34,0,0,1-.16,0l-.17-.09-.18-.08a.41.41,0,0,0-.19,0,.4.4,0,0,0-.2,0,.36.36,0,0,0-.12.08.32.32,0,0,0-.08.09s0,0,0,0h0a0,0,0,0,1,0,0s.1-.12.28-.24A9.17,9.17,0,0,1,204,171a3.06,3.06,0,0,0,.45-.24,1.23,1.23,0,0,0,.26-.24.62.62,0,0,0,.14-.23,1,1,0,0,0,0-.24.48.48,0,0,0-.1-.33.37.37,0,0,0-.31-.13l-.19,0a.59.59,0,0,0-.17.1.44.44,0,0,0-.12.15.33.33,0,0,0-.05.2.28.28,0,0,0,.06.18.2.2,0,0,0,.17.08h.08l.08,0h0a.3.3,0,0,1-.12.13.34.34,0,0,1-.17.05.28.28,0,0,1-.2-.08.33.33,0,0,1-.07-.23.58.58,0,0,1,.05-.21.6.6,0,0,1,.14-.21.78.78,0,0,1,.24-.16.79.79,0,0,1,.32-.06.77.77,0,0,1,.27,0,.68.68,0,0,1,.19.11.42.42,0,0,1,.11.16.43.43,0,0,1,0,.19.64.64,0,0,1-.09.34,1,1,0,0,1-.24.27,1.71,1.71,0,0,1-.35.21,2.76,2.76,0,0,1-.39.18l-.41.18a2.29,2.29,0,0,0-.35.19v0l.13-.06a.32.32,0,0,1,.14,0l.16,0,.19.08.19.07a.37.37,0,0,0,.16,0,.32.32,0,0,0,.18-.06.61.61,0,0,0,.15-.13.59.59,0,0,0,.13-.18l.1-.16Z" transform="translate(-137.67 -119.5)"/><text x="-137.67" y="-119.5"/><path class="cls-1" d="M147.12,140.92l4.64-8,2.43,8h-.74l-.74-2.57h-3.39l-1.45,2.57Zm5.42-3.15-1-3.44-1.9,3.44Z" transform="translate(-137.67 -119.5)"/><path class="cls-1" d="M154.58,140.92l.62-4.76h.63l-.11.77a2.7,2.7,0,0,1,.81-.72,2.06,2.06,0,0,1,1-.23,1.49,1.49,0,0,1,1.08.37,1.32,1.32,0,0,1,.4,1,2.09,2.09,0,0,1,0,.24c0,.09,0,.19,0,.29l-.39,3h-.65l.4-3c0-.07,0-.15,0-.22a1.77,1.77,0,0,0,0-.23.89.89,0,0,0-.28-.7,1.22,1.22,0,0,0-.81-.24,1.39,1.39,0,0,0-1.13.51,2.81,2.81,0,0,0-.55,1.5l-.31,2.37Z" transform="translate(-137.67 -119.5)"/><path class="cls-1" d="M160.88,136.72h-.79l.07-.56h.8l.25-2h.64l-.25,2h1l-.08.56h-1l-.55,4.2h-.64Z" transform="translate(-137.67 -119.5)"/><path class="cls-1" d="M163,140.92l.62-4.76h.65l-.62,4.76Zm.67-6.52a.48.48,0,0,1,.13-.35.5.5,0,0,1,.35-.14.46.46,0,0,1,.34.14.45.45,0,0,1,.14.35.48.48,0,0,1-.48.48.46.46,0,0,1-.35-.14A.45.45,0,0,1,163.65,134.4Z" transform="translate(-137.67 -119.5)"/><path class="cls-1" d="M165.34,138.26h2.35l-.08.59h-2.35Z" transform="translate(-137.67 -119.5)"/><path class="cls-1" d="M172.62,137h1.95a1.83,1.83,0,0,0-.27-.5,1.31,1.31,0,0,0-.39-.35,2.13,2.13,0,0,0-.56-.23,2.2,2.2,0,0,0-.64-.08,1.94,1.94,0,0,0-1.47.59,2.23,2.23,0,0,0-.56,1.58,2.84,2.84,0,0,0,.71,2,2.29,2.29,0,0,0,1.78.78,2.11,2.11,0,0,0,1.11-.29,2.19,2.19,0,0,0,.8-.87l1.83,1.25a4.38,4.38,0,0,1-1.59,1.51,4.46,4.46,0,0,1-2.15.5,5.4,5.4,0,0,1-1.95-.35,4.42,4.42,0,0,1-1.56-1,4.79,4.79,0,0,1-1.06-1.62,5.28,5.28,0,0,1-.37-2,3.85,3.85,0,0,1,1.2-3,4.62,4.62,0,0,1,3.23-1.1,4.26,4.26,0,0,1,3.28,1.3,5.29,5.29,0,0,1,1.26,3.59h-4.31Z" transform="translate(-137.67 -119.5)"/><path class="cls-1" d="M179.62,134l.42,2.7a2.35,2.35,0,0,0,.48,1.17,1.23,1.23,0,0,0,.95.37,1.77,1.77,0,0,0,.32,0l.37-.07.41,1.86-.26,0h-.14a1.94,1.94,0,0,1-1.08-.29,2.06,2.06,0,0,1-.74-.85l.15,1h-2l-.93-5.91Z" transform="translate(-137.67 -119.5)"/><path class="cls-1" d="M187.08,134H189L190,140h-2l-.14-.85a2.61,2.61,0,0,1-.88.79,2.32,2.32,0,0,1-1.1.25,2.83,2.83,0,0,1-2.21-1,3.75,3.75,0,0,1-.88-2.55,3,3,0,0,1,.65-2,2.08,2.08,0,0,1,1.67-.77,2.53,2.53,0,0,1,1.13.25,2.83,2.83,0,0,1,1,.76ZM185.29,138a1.36,1.36,0,0,0,1.05.47,1.18,1.18,0,0,0,1.25-1.23,1.76,1.76,0,0,0-.42-1.21,1.28,1.28,0,0,0-1-.49,1.2,1.2,0,0,0-1.26,1.26A1.8,1.8,0,0,0,185.29,138Z" transform="translate(-137.67 -119.5)"/><path class="cls-1" d="M194.16,134l3.65,5.91h-2.28l-1.61-2.89a3.9,3.9,0,0,1-.2-.38c-.08-.16-.17-.37-.27-.62a4.35,4.35,0,0,1-.06.52,4.13,4.13,0,0,1-.1.44l-.83,2.93h-2.15l2-5.91Z" transform="translate(-137.67 -119.5)"/><path class="cls-1" d="M199.77,134l.94,5.91H198.6l-.93-5.91Zm-.68,6.88a1.06,1.06,0,0,1,.79-.33,1.13,1.13,0,0,1,.8.32,1.1,1.1,0,0,1,.33.81,1,1,0,0,1-.33.79,1.09,1.09,0,0,1-.8.32,1.13,1.13,0,0,1-1.12-1.11A1.08,1.08,0,0,1,199.09,140.92Z" transform="translate(-137.67 -119.5)"/><path class="cls-1" d="M203.67,134l.69,4.4h1.06l.24,1.51H204.6l.28,1.72h-2.09l-.26-1.72h-1l-.24-1.51h1l-.7-4.4Z" transform="translate(-137.67 -119.5)"/><path class="cls-1" d="M206.07,131.42h2.19l4.59,8.53h-2.24l-1.23-2.53c-.09-.2-.18-.39-.25-.56s-.12-.34-.16-.49a4.92,4.92,0,0,1-.13.88q0,.09,0,.15l-.52,2.55h-2.16l1.68-5.62Z" transform="translate(-137.67 -119.5)"/><path class="cls-2" d="M191.33,127.17l-.79-.2a3.07,3.07,0,0,0,.82-1.17,4,4,0,0,0,.27-1.5,4.06,4.06,0,0,0-.28-1.54,3.68,3.68,0,0,0-.82-1.24,4.23,4.23,0,0,0-1.4-.91,4.33,4.33,0,0,0-1.68-.32,3.38,3.38,0,0,0-2.55,1,3.57,3.57,0,0,0-.94,2.61,3.86,3.86,0,0,0,.19,1.17,7,7,0,0,0,.6,1.34l-.9-.2a7.47,7.47,0,0,1-.43-1.32,5.42,5.42,0,0,1-.14-1.18,4,4,0,0,1,4.19-4.18,5.28,5.28,0,0,1,1.95.37,4.68,4.68,0,0,1,1.58,1.06,4.56,4.56,0,0,1,1,1.52,5.44,5.44,0,0,1,.32,1.87,4.82,4.82,0,0,1-.23,1.56A4.1,4.1,0,0,1,191.33,127.17Z" transform="translate(-137.67 -119.5)"/><path class="cls-2" d="M185.89,127.47a3,3,0,0,1,2.15.84,2.81,2.81,0,0,1,.86,2.11,2.62,2.62,0,0,1-.72,1.91,2.49,2.49,0,0,1-1.86.73,3,3,0,0,1-2.18-.83,2.8,2.8,0,0,1-.86-2.1,2.63,2.63,0,0,1,.72-1.93A2.52,2.52,0,0,1,185.89,127.47Zm2.37,2.92a2,2,0,0,0-.66-1.56,2.36,2.36,0,0,0-1.67-.61,2,2,0,0,0-1.45.53,1.84,1.84,0,0,0-.56,1.39,2.06,2.06,0,0,0,.67,1.55,2.38,2.38,0,0,0,1.67.62,2,2,0,0,0,1.44-.54A1.81,1.81,0,0,0,188.26,130.39Z" transform="translate(-137.67 -119.5)"/><path class="cls-2" d="M183.51,140.86l9.08,1.2v.69l-6.16-.8,2.28,2.86v1.1l-2.4-3.11-2.8,2.53v-.86l2.76-2.54-2.76-.37Z" transform="translate(-137.67 -119.5)"/><path class="cls-2" d="M183.51,146.33l5.2.69v.7l-5.2-.68Zm7.12.73a.54.54,0,0,1,.38.15.56.56,0,0,1,0,.76.54.54,0,0,1-.38.15.53.53,0,1,1,0-1.06Z" transform="translate(-137.67 -119.5)"/><path class="cls-2" d="M186,154V149.6h-.14a2.09,2.09,0,0,0-1.45.47,1.73,1.73,0,0,0-.52,1.35,2,2,0,0,0,.24,1,2.42,2.42,0,0,0,.74.76l-.47.48a2.85,2.85,0,0,1-.85-1,2.73,2.73,0,0,1-.28-1.24,2.52,2.52,0,0,1,.69-1.85,2.45,2.45,0,0,1,1.81-.7,3.25,3.25,0,0,1,2.25.79,2.62,2.62,0,0,1,.87,2,2.26,2.26,0,0,1-.62,1.71,2.39,2.39,0,0,1-1.74.6h-.25Zm.58-.66a1.78,1.78,0,0,0,1.26-.4,1.43,1.43,0,0,0,.45-1.13,2,2,0,0,0-.43-1.34,2.38,2.38,0,0,0-1.28-.75Z" transform="translate(-137.67 -119.5)"/><path class="cls-2" d="M184.75,155.13a2.45,2.45,0,0,0-.67.75,1.84,1.84,0,0,0-.21.88,1.33,1.33,0,0,0,.27.85.85.85,0,0,0,.68.33.8.8,0,0,0,.54-.18,3.07,3.07,0,0,0,.48-.87,3.45,3.45,0,0,1,.69-1.22,1.13,1.13,0,0,1,.81-.3,1.47,1.47,0,0,1,1.14.48,1.84,1.84,0,0,1,.43,1.28,2,2,0,0,1-.19.86,3,3,0,0,1-.57.82l-.47-.41a2.64,2.64,0,0,0,.5-.65,1.6,1.6,0,0,0,.17-.7,1,1,0,0,0-.27-.74.87.87,0,0,0-.68-.28c-.33,0-.63.32-.89,1,0,.14-.1.25-.13.32a3,3,0,0,1-.65,1,1.2,1.2,0,0,1-.82.3,1.47,1.47,0,0,1-1.18-.52,2.06,2.06,0,0,1-.45-1.39,2.64,2.64,0,0,1,.25-1.16,2.58,2.58,0,0,1,.77-.89Z" transform="translate(-137.67 -119.5)"/><rect class="cls-1" y="45.71" width="1.02" height="0.06"/><rect class="cls-1" x="2.03" y="45.71" width="1.02" height="0.06"/><rect class="cls-1" x="4.06" y="45.71" width="1.02" height="0.06"/><rect class="cls-1" x="6.09" y="45.71" width="1.02" height="0.06"/><rect class="cls-1" x="8.12" y="45.71" width="1.02" height="0.06"/><rect class="cls-1" x="10.15" y="45.71" width="1.02" height="0.06"/><rect class="cls-1" x="12.18" y="45.71" width="1.02" height="0.06"/><rect class="cls-1" x="14.21" y="45.71" width="1.02" height="0.06"/><rect class="cls-1" x="16.24" y="45.71" width="1.02" height="0.06"/><rect class="cls-1" x="18.27" y="45.71" width="1.02" height="0.06"/><rect class="cls-1" x="20.3" y="45.71" width="1.02" height="0.06"/><rect class="cls-1" x="22.33" y="45.71" width="1.02" height="0.06"/><rect class="cls-1" x="24.36" y="45.71" width="1.02" height="0.06"/><rect class="cls-1" x="26.39" y="45.71" width="1.02" height="0.06"/><rect class="cls-1" x="28.42" y="45.71" width="1.02" height="0.06"/><rect class="cls-1" x="30.45" y="45.71" width="1.02" height="0.06"/><rect class="cls-1" x="32.48" y="45.71" width="1.02" height="0.06"/><rect class="cls-1" x="34.51" y="45.71" width="1.02" height="0.06"/><rect class="cls-1" x="36.54" y="45.71" width="1.02" height="0.06"/><rect class="cls-1" x="38.57" y="45.71" width="1.02" height="0.06"/><rect class="cls-1" x="40.6" y="45.71" width="1.02" height="0.06"/><rect class="cls-1" x="42.63" y="45.71" width="1.02" height="0.06"/><rect class="cls-1" x="44.66" y="45.71" width="1.02" height="0.06"/><rect class="cls-1" x="46.69" y="45.71" width="1.02" height="0.06"/><rect class="cls-1" x="48.72" y="45.71" width="1.02" height="0.06"/><rect class="cls-1" x="50.75" y="45.71" width="1.02" height="0.06"/><rect class="cls-1" x="52.78" y="45.71" width="1.02" height="0.06"/><rect class="cls-1" x="54.8" y="45.71" width="1.02" height="0.06"/><rect class="cls-1" x="56.84" y="45.71" width="1.02" height="0.06"/><rect class="cls-1" x="58.86" y="45.71" width="1.02" height="0.06"/><rect class="cls-1" x="60.9" y="45.71" width="1.02" height="0.06"/><rect class="cls-1" x="62.92" y="45.71" width="1.02" height="0.06"/><rect class="cls-1" x="64.96" y="45.71" width="1.02" height="0.06"/><rect class="cls-1" x="66.98" y="45.71" width="1.02" height="0.06"/><rect class="cls-1" x="69.02" y="45.71" width="1.02" height="0.06"/><rect class="cls-1" x="71.04" y="45.71" width="1.02" height="0.06"/><rect class="cls-1" x="73.08" y="45.71" width="1.02" height="0.06"/><rect class="cls-1" x="75.1" y="45.71" width="1.02" height="0.06"/><rect class="cls-1" x="77.14" y="45.71" width="1.02" height="0.06"/><rect class="cls-1" x="79.16" y="45.71" width="1.02" height="0.06"/><rect class="cls-1" x="81.2" y="45.71" width="1.02" height="0.06"/><rect class="cls-1" x="8.17" y="50.97" width="5.89" height="0.06"/><rect class="cls-1" x="68.56" y="51.01" width="5.89" height="0.06"/><path class="cls-2" d="M144,164.76h0a1.73,1.73,0,0,0-.43-.43,2.87,2.87,0,0,0-.6-.28c-.52-.19-.85-.26-1-.32l-.24-.06-.06,0s0,0,0-.05a1.45,1.45,0,0,0-.18-.35.71.71,0,0,0-.16-.18l-.14-.11c-.09-.08-.1-.1-.11-.13a.21.21,0,0,1,0-.13s.05,0,.09-.1a.39.39,0,0,0,.09-.15.33.33,0,0,0,0-.22.51.51,0,0,0-.12-.25.54.54,0,0,0-.25-.19.52.52,0,0,0-.29,0,.42.42,0,0,0-.25.22.48.48,0,0,0,0,.3.65.65,0,0,0,.15.28l.16.14c.21.16.24.16.35.26a1.37,1.37,0,0,1,.21.24,2.1,2.1,0,0,1,.17.33.2.2,0,0,0,0,0,.14.14,0,0,1,0,.07s0,.06-.08.08l-.08,0a.42.42,0,0,1-.12,0h-.16a.58.58,0,0,1-.16,0l-.19-.08-.18-.1-.21-.12a.56.56,0,0,0-.18-.05.49.49,0,0,0-.23.05.46.46,0,0,0-.19.17.5.5,0,0,0,0,.32.55.55,0,0,0,.1.23.5.5,0,0,0,.24.2.37.37,0,0,0,.24,0,.39.39,0,0,0,.26-.12l.07-.1a.58.58,0,0,0,.07-.21.13.13,0,0,1,.06-.09.11.11,0,0,1,.1,0,.52.52,0,0,1,.17,0l.28.11.18.08a.34.34,0,0,1,.17.08s.07.12.09.15,0,.14.1.28a2.33,2.33,0,0,1,.12.3c0,.1.11.32.13.35a.07.07,0,0,0,0,0h.39v0l-.25-.66-.15-.34,2,.5Zm-3.17-2.17a.48.48,0,0,1-.4-.44.32.32,0,0,1,.14-.25.34.34,0,0,1,.18,0,.39.39,0,0,1,.21.12.41.41,0,0,1,.12.17.31.31,0,0,1,0,.2.31.31,0,0,1-.1.17A.32.32,0,0,1,140.81,162.59Zm-.5,1.39a.31.31,0,0,1-.08.18.34.34,0,0,1-.19.1.42.42,0,0,1-.21,0,.52.52,0,0,1-.14-.18.33.33,0,0,1-.05-.15.31.31,0,0,1,0-.2.36.36,0,0,1,.13-.14.41.41,0,0,1,.17,0,.42.42,0,0,1,.16.07.35.35,0,0,1,.15.19A.48.48,0,0,1,140.31,164Z" transform="translate(-137.67 -119.5)"/></svg>