<svg id="_9.整齐-冰激凌" data-name="9.整齐-冰激凌" xmlns="http://www.w3.org/2000/svg" viewBox="0 0 393.94 97.23"><defs><style>.cls-1{fill:#d3427c;}.cls-1,.cls-2,.cls-4,.cls-5{stroke:#213e20;stroke-miterlimit:10;}.cls-2{fill:#e4e4da;stroke-width:0.5px;}.cls-3{fill:#213e20;}.cls-4{fill:#3fb2c8;stroke-width:0.1px;}.cls-5{fill:#e5e5db;stroke-width:0.75px;}.cls-6{fill:#d7d7cd;}</style></defs><title>starfish_v3</title><g id="整齐3-冰激凌"><rect class="cls-1" x="3.1" y="3.19" width="387.74" height="90.96"/><circle class="cls-2" cx="11.47" cy="85.89" r="3.68"/><circle class="cls-3" cx="11.47" cy="85.89" r="1.34"/><circle class="cls-2" cx="11.53" cy="12.21" r="3.71"/><circle class="cls-3" cx="11.53" cy="12.21" r="1.36"/><circle class="cls-2" cx="382.23" cy="85.86" r="3.71"/><circle class="cls-3" cx="382.23" cy="85.86" r="1.35"/><circle class="cls-2" cx="382.29" cy="12.17" r="3.68"/><circle class="cls-3" cx="382.29" cy="12.17" r="1.34"/><rect class="cls-2" x="194.14" y="0.25" width="5.66" height="5.66"/><rect class="cls-2" x="194.14" y="91.32" width="5.66" height="5.66"/><rect class="cls-2" x="0.27" y="91.3" width="5.66" height="5.66"/><rect class="cls-2" x="0.26" y="45.83" width="5.68" height="5.68"/><rect class="cls-2" x="0.25" y="0.34" width="5.69" height="5.69"/><rect class="cls-2" x="387.99" y="0.34" width="5.7" height="5.7"/><rect class="cls-2" x="387.99" y="45.82" width="5.7" height="5.7"/><rect class="cls-2" x="388.01" y="91.31" width="5.67" height="5.67"/></g><g id="整齐2-冰激凌"><path class="cls-4" d="M292.83,776.54h11.34l1.11-8.46H294.51c0,.18,0,.36,0,.55A17.64,17.64,0,0,1,292.83,776.54Z" transform="translate(-92.73 -732.54)"/><polygon class="cls-4" points="165.28 35.54 166.5 26.21 140.5 26.21 142.75 35.54 165.28 35.54"/><path class="cls-4" d="M294.51,768.08h10.77l1.23-9.34H290.78a13.42,13.42,0,0,1,2.29,3.26A14.74,14.74,0,0,1,294.51,768.08Z" transform="translate(-92.73 -732.54)"/><polygon class="cls-4" points="175.11 53.34 174.01 61.8 179.5 61.8 175.71 53.34 175.11 53.34"/><polygon class="cls-4" points="87.37 53.34 86.27 61.8 104.91 61.8 109.28 53.34 87.37 53.34"/><polygon class="cls-4" points="164.17 44 165.28 35.54 142.75 35.54 144.79 44 164.17 44"/><polygon class="cls-4" points="187.51 53.34 191.8 61.8 209.1 61.8 210.22 53.34 187.51 53.34"/><polygon class="cls-4" points="147.04 53.34 149.08 61.8 161.83 61.8 162.94 53.34 147.04 53.34"/><polygon class="cls-4" points="114.11 44 118.48 35.54 89.69 35.54 88.59 44 114.11 44"/><path class="cls-4" d="M220.3,774.5l-1,2h6.38l-.15-.74c-.27-1.4-.51-3.09-.72-5.09-.09-.81-.17-1.7-.25-2.63h-1.72c-.16.46-.32.92-.49,1.37Q221.42,772.17,220.3,774.5Z" transform="translate(-92.73 -732.54)"/><path class="cls-4" d="M170.3,768.08h-42c0,.21,0,.43,0,.65,0,2.55,2.31,5.16,6.9,7.81h34.05Z" transform="translate(-92.73 -732.54)"/><path class="cls-4" d="M169.19,776.54H135.14l.31.19c.92.52,1.62.93,2.1,1.22q6.52,3.84,8.87,7.52l.23.4H168Z" transform="translate(-92.73 -732.54)"/><polygon class="cls-4" points="90.26 31.13 89.69 35.54 118.48 35.54 123.31 26.21 104.91 26.21 104.28 31.13 90.26 31.13"/><polygon class="cls-4" points="191.8 61.8 196.54 71.13 207.88 71.13 209.1 61.8 191.8 61.8"/><polygon class="cls-4" points="88.59 44 87.37 53.34 109.28 53.34 114.11 44 88.59 44"/><polygon class="cls-4" points="120.53 56.97 135.62 56.96 134.88 53.34 122.23 53.34 120.53 56.97"/><polygon class="cls-4" points="174.01 61.8 172.79 71.13 183.69 71.13 179.5 61.8 174.01 61.8"/><path class="cls-4" d="M280.3,764.68q-2.08-1.57-8.14-1.58h-1.38l-.65,5h12.06A5.32,5.32,0,0,0,280.3,764.68Z" transform="translate(-92.73 -732.54)"/><path class="cls-4" d="M224.25,763.57c-.43,1.59-.89,3.09-1.37,4.51h1.72C224.48,766.7,224.36,765.21,224.25,763.57Z" transform="translate(-92.73 -732.54)"/><path class="cls-4" d="M145,767.57a11.15,11.15,0,0,0-3.8-4.31,9.6,9.6,0,0,0-5.23-1.42,8.12,8.12,0,0,0-5.56,1.94,6.21,6.21,0,0,0-2.16,4.3h42l.58-4.4h-15l.65-5h-5.86c.21.26.42.52.62.79Z" transform="translate(-92.73 -732.54)"/><path class="cls-4" d="M292.83,776.54a14.28,14.28,0,0,1-2,3.08q-3.74,4.35-10.75,5.89l.19.36H303l1.22-9.33Z" transform="translate(-92.73 -732.54)"/><polygon class="cls-4" points="115.82 66.48 113.49 71.13 138.8 71.13 137.88 66.47 115.82 66.48"/><path class="cls-4" d="M148.75,794.33c0,.22,0,.42,0,.64a18.23,18.23,0,0,1-2,8.7h18.9l1.22-9.34Z" transform="translate(-92.73 -732.54)"/><polygon class="cls-4" points="149.08 61.8 151.33 71.13 160.61 71.13 161.83 61.8 149.08 61.8"/><polygon class="cls-4" points="86.27 61.8 85.06 71.13 100.08 71.13 104.91 61.8 86.27 61.8"/><polygon class="cls-4" points="126.61 44 122.23 53.34 134.88 53.34 132.99 44 126.61 44"/><polygon class="cls-4" points="144.79 44 147.04 53.34 162.94 53.34 164.17 44 144.79 44"/><path class="cls-4" d="M146.65,785.87a17.36,17.36,0,0,1,2.1,8.46h18.11l1.11-8.46Z" transform="translate(-92.73 -732.54)"/><path class="cls-4" d="M391.47,776.57l2.1,1.23q6.54,3.84,8.87,7.52c.12.18.22.37.32.55h12.35l1.22-9.33H391.41Z" transform="translate(-92.73 -732.54)"/><polygon class="cls-4" points="257.11 44 258.21 35.54 224.67 35.54 223.57 44 257.11 44"/><path class="cls-4" d="M373,768.08a16.14,16.14,0,0,1,3.72-9.34H364.31l-1.21,9.34Z" transform="translate(-92.73 -732.54)"/><path class="cls-4" d="M401.05,767.42a11.17,11.17,0,0,0-3.81-4.31,9.54,9.54,0,0,0-5.22-1.42,8.13,8.13,0,0,0-5.57,1.94,6.3,6.3,0,0,0-2.17,4.45h33.16l1.23-9.34H406.76c.17.21.34.42.5.64Z" transform="translate(-92.73 -732.54)"/><path class="cls-4" d="M280.05,776.54c1.55-1.27,2.33-3.38,2.33-6.36a11.22,11.22,0,0,0-.19-2.1H270.13l-1.1,8.46Z" transform="translate(-92.73 -732.54)"/><polygon class="cls-4" points="225.24 31.13 224.67 35.54 258.21 35.54 259.43 26.21 248.26 26.21 247.66 31.12 225.24 31.13"/><polygon class="cls-4" points="360.52 35.54 361.76 26.21 338.08 26.21 336.84 35.54 360.52 35.54"/><path class="cls-4" d="M374.5,776.54a13.34,13.34,0,0,1-.59-1.4,16.49,16.49,0,0,1-.93-5.6c0-.5,0-1,.06-1.46H363.1L362,776.54Z" transform="translate(-92.73 -732.54)"/><path class="cls-4" d="M391.41,776.54h24.92l1.11-8.46H384.28c0,.16,0,.33,0,.5Q384.26,772.48,391.41,776.54Z" transform="translate(-92.73 -732.54)"/><polygon class="cls-4" points="244.68 53.34 244.58 54.13 222.29 54.14 221.29 61.8 254.78 61.8 255.89 53.34 244.68 53.34"/><path class="cls-4" d="M388.07,787.39l-1.86-1-.88-.49H360.77l-1.1,8.46h33.47a7.24,7.24,0,0,0-1.23-3.66A10.83,10.83,0,0,0,388.07,787.39Z" transform="translate(-92.73 -732.54)"/><path class="cls-4" d="M402.76,785.87a17.62,17.62,0,0,1,2,8.46H414l1.11-8.46Z" transform="translate(-92.73 -732.54)"/><polygon class="cls-4" points="334.54 53.68 333.47 61.8 357.07 61.8 358.14 53.66 334.54 53.68"/><polygon class="cls-4" points="359.48 43.37 360.52 35.54 336.84 35.54 335.8 43.38 359.48 43.37"/><polygon class="cls-4" points="221.29 61.8 220.07 71.13 253.56 71.13 254.78 61.8 221.29 61.8"/><path class="cls-4" d="M378.58,801.09a11.52,11.52,0,0,0,6.33,1.7,8.45,8.45,0,0,0,6.08-2.1,7.6,7.6,0,0,0,2.19-5.78,5.46,5.46,0,0,0,0-.58H359.67l-1.22,9.34h9.15l6.22-7.84A14.82,14.82,0,0,0,378.58,801.09Z" transform="translate(-92.73 -732.54)"/><polygon class="cls-4" points="333.47 61.8 332.24 71.13 355.84 71.13 357.07 61.8 333.47 61.8"/><path class="cls-4" d="M404.77,794.33c0,.17,0,.32,0,.49a18.12,18.12,0,0,1-2.1,8.85h10.08l1.23-9.34Z" transform="translate(-92.73 -732.54)"/><path class="cls-4" d="M270.55,778.55c4.59,0,7.71-.63,9.36-1.89l.14-.12H269l-.26,2Z" transform="translate(-92.73 -732.54)"/><path class="cls-4" d="M376.62,779.75a14.07,14.07,0,0,1-2.12-3.21H362l-1.22,9.33h24.56C381.07,783.5,378.16,781.45,376.62,779.75Z" transform="translate(-92.73 -732.54)"/><polygon class="cls-4" points="223.57 44 223.55 44.16 245.88 44.15 244.68 53.34 255.89 53.34 257.11 44 223.57 44"/></g><g id="整齐1-冰激凌"><polygon class="cls-5" points="224.93 48.32 213.02 46.01 210.05 54.94 243.89 61.49 246.81 52.7 224.93 48.32"/><path class="cls-5" d="M395.11,777.39l-2.37-.54-.06,0-16.15,5a14.16,14.16,0,0,0,3,2.43c2,1.17,5.36,2.26,10.14,3.26l16.64-5.18-.47-.44Q402.49,779.11,395.11,777.39Z" transform="translate(-92.73 -732.54)"/><polygon class="cls-5" points="249.66 46.99 249.17 56.39 261.29 55.45 261.78 46.05 249.66 46.99"/><polygon class="cls-5" points="173.13 51.22 173.73 51.22 173.27 50.19 173.13 51.22"/><path class="cls-5" d="M142.72,751.9a20.06,20.06,0,0,0-8.79-1.84,19.15,19.15,0,0,0-13.58,5,17.87,17.87,0,0,0-1.47,1.55h29.76A17,17,0,0,0,142.72,751.9Z" transform="translate(-92.73 -732.54)"/><path class="cls-5" d="M109.25,802.14a22.22,22.22,0,0,0,7.69,6.65,21.53,21.53,0,0,0,9.82,2.17q9.06,0,14.55-5a16.34,16.34,0,0,0,3.45-4.41h-35Z" transform="translate(-92.73 -732.54)"/><path class="cls-5" d="M128.47,761.66a8.1,8.1,0,0,1,5.56-1.94,9.6,9.6,0,0,1,5.23,1.42,11.19,11.19,0,0,1,3.8,4.32l6.21-8a9.73,9.73,0,0,0-.61-.79H118.9a16.08,16.08,0,0,0-3.84,9.33h11.25A6.25,6.25,0,0,1,128.47,761.66Z" transform="translate(-92.73 -732.54)"/><path class="cls-5" d="M144.67,783.75H127.06c.38.22.75.43,1.15.64l1.86,1a10.93,10.93,0,0,1,3.84,3.28,7.29,7.29,0,0,1,1.22,3.52h11.64A17.4,17.4,0,0,0,144.67,783.75Z" transform="translate(-92.73 -732.54)"/><path class="cls-5" d="M146.75,792.22H135.11a5.68,5.68,0,0,1,0,.72,7.58,7.58,0,0,1-2.19,5.78,8.48,8.48,0,0,1-6.08,2.11,11.63,11.63,0,0,1-6.33-1.7,14.86,14.86,0,0,1-4.76-5.27l-6.09,7.69h35a18.1,18.1,0,0,0,2-8.69C146.77,792.64,146.75,792.43,146.75,792.22Z" transform="translate(-92.73 -732.54)"/><path class="cls-5" d="M126.26,766.62q0-.35,0-.66H115.05c0,.53-.08,1.06-.08,1.61a16.41,16.41,0,0,0,.94,5.6,12.57,12.57,0,0,0,.51,1.25h16.74C128.57,771.77,126.26,769.17,126.26,766.62Z" transform="translate(-92.73 -732.54)"/><path class="cls-5" d="M144.44,783.35q-2.34-3.68-8.87-7.51l-2.1-1.23-.31-.19H116.42a14.18,14.18,0,0,0,2.2,3.37c1.5,1.66,4.33,3.66,8.44,6h17.61Z" transform="translate(-92.73 -732.54)"/><polygon class="cls-5" points="103.63 18.87 62.49 18.9 61.8 24.09 102.96 24.09 103.63 18.87"/><polygon class="cls-5" points="72.15 59.68 70.93 69.01 83.08 69.01 84.29 59.68 72.15 59.68"/><polygon class="cls-5" points="69.9 76.86 82.06 76.85 83.08 69.01 70.93 69.01 69.9 76.86"/><polygon class="cls-5" points="74.48 41.89 73.26 51.22 85.39 51.22 86.61 41.89 74.48 41.89"/><polygon class="cls-5" points="76.17 29.03 75.59 33.42 87.71 33.42 88.28 29.02 102.3 29.01 102.93 24.09 61.77 24.09 61.12 29.03 76.17 29.03"/><polygon class="cls-5" points="73.26 51.38 72.15 59.84 84.29 59.84 85.39 51.38 73.26 51.38"/><polygon class="cls-5" points="86.61 41.89 87.71 33.42 75.59 33.42 74.48 41.89 86.61 41.89"/><path class="cls-5" d="M220.9,766c.48-1.42.94-2.92,1.37-4.51.11,1.65.23,3.14.35,4.51H233.5l-2.25-9.33H214.06L209.23,766Z" transform="translate(-92.73 -732.54)"/><polygon class="cls-5" points="137.26 18.85 124.03 18.86 121.33 24.09 138.52 24.09 137.26 18.85"/><polygon class="cls-5" points="132.9 51.22 133.64 54.85 118.55 54.86 120.26 51.22 107.3 51.22 102.93 59.68 147.1 59.68 145.06 51.22 132.9 51.22"/><path class="cls-5" d="M217.36,774.42l1-2q1.11-2.34,2.1-5c.16-.45.32-.9.48-1.37H209.23l-4.37,8.46Z" transform="translate(-92.73 -732.54)"/><polygon class="cls-5" points="112.13 41.89 107.3 51.22 120.26 51.22 124.63 41.89 112.13 41.89"/><polygon class="cls-5" points="94.05 76.85 107.6 76.84 111.52 69.01 98.1 69.01 94.05 76.85"/><polygon class="cls-5" points="102.94 59.68 98.11 69.01 111.52 69.01 113.85 64.36 135.91 64.35 136.83 69.01 149.36 69.01 147.11 59.68 102.94 59.68"/><path class="cls-5" d="M223.59,773.69l.15.73h11.8l-2-8.46H222.62c.08.94.16,1.83.25,2.64C223.08,770.59,223.32,772.29,223.59,773.69Z" transform="translate(-92.73 -732.54)"/><polygon class="cls-5" points="138.36 76.82 151.23 76.81 149.35 69.01 136.82 69.01 138.36 76.82"/><polygon class="cls-5" points="131.01 41.89 132.9 51.22 145.06 51.22 142.81 41.89 131.01 41.89"/><polygon class="cls-5" points="174.32 41.89 175.42 33.42 163.3 33.42 162.19 41.89 174.32 41.89"/><polygon class="cls-5" points="177.53 59.68 181.71 69.01 194.56 69.01 189.82 59.68 177.53 59.68"/><polygon class="cls-5" points="160.96 51.22 159.85 59.68 172.03 59.68 173.13 51.22 160.96 51.22"/><path class="cls-5" d="M288.82,777.51a14.59,14.59,0,0,0,2-3.09H278.07a1.49,1.49,0,0,1-.14.12q-2.48,1.89-9.36,1.89h-1.78l.26-2H254.92l-1.23,9.33h12.17l.14-1,.46,1h11.8l-.19-.36Q285.09,781.85,288.82,777.51Z" transform="translate(-92.73 -732.54)"/><polygon class="cls-5" points="159.85 59.68 158.63 69.01 170.81 69.01 172.03 59.68 159.85 59.68"/><path class="cls-5" d="M268.15,766l.65-5h1.38c4,0,6.75.52,8.14,1.58a5.3,5.3,0,0,1,1.89,3.39h12.32a14.65,14.65,0,0,0-1.44-6.07,13.23,13.23,0,0,0-2.29-3.26H257.25L256,766Z" transform="translate(-92.73 -732.54)"/><path class="cls-5" d="M278.07,774.42h12.78a17.59,17.59,0,0,0,1.71-7.9c0-.19,0-.37,0-.56H280.21a11.33,11.33,0,0,1,.19,2.11C280.4,771,279.62,773.15,278.07,774.42Z" transform="translate(-92.73 -732.54)"/><path class="cls-5" d="M286.81,754.84a15.69,15.69,0,0,0-5.88-2.69,52.17,52.17,0,0,0-10.91-.78H257.94l-.69,5.26H288.8A14.25,14.25,0,0,0,286.81,754.84Z" transform="translate(-92.73 -732.54)"/><polygon class="cls-5" points="157.6 76.81 169.8 76.8 170.81 69.01 158.63 69.01 157.6 76.81"/><polygon class="cls-5" points="185.2 76.79 198.51 76.78 194.56 69.01 181.71 69.01 185.2 76.79"/><polygon class="cls-5" points="173.73 51.22 177.53 59.68 189.82 59.68 185.53 51.22 173.73 51.22"/><polygon class="cls-5" points="204.88 76.78 217.08 76.77 218.09 69.01 205.9 69.01 204.88 76.78"/><polygon class="cls-5" points="220.41 51.22 208.24 51.22 207.13 59.68 219.31 59.68 220.41 51.22"/><polygon class="cls-5" points="207.13 59.68 205.9 69.01 218.09 69.01 219.31 59.68 207.13 59.68"/><polygon class="cls-5" points="246.94 18.79 212.49 18.81 211.8 24.09 246.28 24.09 246.94 18.79"/><polygon class="cls-5" points="222.69 33.42 223.26 29.02 245.68 29 246.28 24.09 211.8 24.09 210.57 33.42 222.69 33.42"/><polygon class="cls-5" points="221.59 41.89 222.69 33.42 210.57 33.42 209.46 41.89 221.59 41.89"/><polygon class="cls-5" points="267.28 41.89 268.38 33.42 256.23 33.42 255.13 41.89 267.28 41.89"/><polygon class="cls-5" points="270.3 18.77 258.14 18.78 257.45 24.09 269.6 24.09 270.3 18.77"/><polygon class="cls-5" points="268.38 33.42 269.6 24.09 257.45 24.09 256.23 33.42 268.38 33.42"/><polygon class="cls-5" points="250.57 76.75 262.73 76.75 263.74 69.01 251.59 69.01 250.57 76.75"/><polygon class="cls-5" points="253.91 51.22 252.8 59.68 264.96 59.68 266.06 51.22 253.91 51.22"/><polygon class="cls-5" points="252.73 59.68 251.51 69.01 263.67 69.01 264.88 59.68 252.73 59.68"/><path class="cls-5" d="M371.93,773a12.5,12.5,0,0,0,.59,1.4h16.91q-7.14-4-7.15-8c0-.17,0-.33,0-.5H371.06c0,.48-.06,1-.06,1.46A16.41,16.41,0,0,0,371.93,773Z" transform="translate(-92.73 -732.54)"/><path class="cls-5" d="M382.3,766a6.32,6.32,0,0,1,2.17-4.45,8.13,8.13,0,0,1,5.57-1.94,9.54,9.54,0,0,1,5.22,1.42,11.13,11.13,0,0,1,3.81,4.32l6.21-8c-.16-.22-.33-.43-.5-.64h-30a16.09,16.09,0,0,0-3.73,9.33Z" transform="translate(-92.73 -732.54)"/><path class="cls-5" d="M398.74,751.75a20.06,20.06,0,0,0-8.79-1.84,19.13,19.13,0,0,0-13.58,5,16.75,16.75,0,0,0-1.58,1.7h30A16.92,16.92,0,0,0,398.74,751.75Z" transform="translate(-92.73 -732.54)"/><path class="cls-5" d="M402.78,792.22H391.15a5.27,5.27,0,0,1,0,.57,7.62,7.62,0,0,1-2.19,5.78,8.45,8.45,0,0,1-6.08,2.1,11.58,11.58,0,0,1-6.34-1.69,14.84,14.84,0,0,1-4.75-5.27l-6.22,7.84H400.7a18.09,18.09,0,0,0,2.09-8.85C402.79,792.54,402.78,792.38,402.78,792.22Z" transform="translate(-92.73 -732.54)"/><path class="cls-5" d="M383.36,783.75l.87.49,1.86,1a10.83,10.83,0,0,1,3.84,3.28,7.29,7.29,0,0,1,1.24,3.67h11.62a17.69,17.69,0,0,0-2-8.47Z" transform="translate(-92.73 -732.54)"/><path class="cls-5" d="M365.27,802a22.22,22.22,0,0,0,7.69,6.65,21.53,21.53,0,0,0,9.82,2.17q9.08,0,14.55-5a16.49,16.49,0,0,0,3.38-4.26H365.63Z" transform="translate(-92.73 -732.54)"/><polygon class="cls-5" points="317.05 76.72 329.25 76.71 330.26 69.01 318.06 69.01 317.05 76.72"/><polygon class="cls-5" points="334.86 33.42 336.11 24.09 323.96 24.09 322.74 33.42 334.86 33.42"/><polygon class="cls-5" points="352.85 76.69 365 76.69 366.01 69.01 353.86 69.01 352.85 76.69"/><polygon class="cls-5" points="370.65 33.42 371.87 24.09 359.78 24.09 358.54 33.42 370.65 33.42"/><path class="cls-5" d="M425.36,783.75H413.13L412,792.22h12.2S425.34,783.87,425.36,783.75Z" transform="translate(-92.73 -732.54)"/><polygon class="cls-5" points="372.57 18.71 360.5 18.72 359.78 24.09 371.87 24.09 372.57 18.71"/><polygon class="cls-5" points="336.82 18.74 324.66 18.74 323.96 24.09 336.11 24.09 336.82 18.74"/><path class="cls-5" d="M427.64,766H415.51l-1.11,8.46h12.15C426.57,774.21,427.64,766,427.64,766Z" transform="translate(-92.73 -732.54)"/><path class="cls-5" d="M451.31,766l-1,7.83s0,.42-.06.63h12.11l1.1-8.46Z" transform="translate(-92.73 -732.54)"/><polygon class="cls-5" points="319.29 59.68 318.06 69.01 330.26 69.01 331.49 59.68 319.29 59.68"/><polygon class="cls-5" points="355.07 59.68 353.84 69.01 365.98 69.01 367.2 59.68 355.07 59.68"/><rect class="cls-6" x="286.17" y="780.8" width="7.07" height="0.83" transform="translate(-560.28 -298.87) rotate(-45)"/><rect class="cls-6" x="286.16" y="780.8" width="7.07" height="0.84" transform="translate(-150.6 805.93) rotate(-135)"/><polygon class="cls-5" points="326.18 58.16 373.81 52.81 373.98 43.4 326.36 48.75 326.18 58.16"/><path class="cls-5" d="M449,783.75l-1.13,8.47H460l1.11-8.47Z" transform="translate(-92.73 -732.54)"/></g></svg>